<svg width="298" height="251" viewBox="0 0 298 251" fill="none" xmlns="http://www.w3.org/2000/svg">
<path d="M148.732 369.841C230.874 369.841 297.464 303.167 297.464 220.921C297.464 138.674 230.874 72 148.732 72C66.5895 72 0 138.674 0 220.921C0 303.167 66.5895 369.841 148.732 369.841Z" fill="#23C5B8"/>
<path fill-rule="evenodd" clip-rule="evenodd" d="M182.528 163.273C181.183 169.299 179.696 182.816 182.056 189.196C182.929 191.559 228.668 209.14 234.096 211.291C245.424 215.828 255.431 220.483 259.679 225.138C264.493 230.408 268.128 239.6 268.128 251.841C175.613 251.841 127.184 251.841 34.8111 251.841C34.8111 239.577 38.422 230.384 43.2602 225.138C47.5083 220.483 57.4914 215.828 68.8434 211.291C74.2715 209.117 120.01 191.559 120.883 189.196C123.243 182.816 121.756 169.299 120.411 163.273C157.535 143.636 145.145 143.494 182.528 163.273Z" fill="#FEC49C"/>
<path fill-rule="evenodd" clip-rule="evenodd" d="M194.14 195.245C194.14 195.245 181.442 213.299 171.53 214.41C156.662 216.04 153.145 211.078 143.327 201.342C135.114 193.213 125.202 182.414 121.992 174.899C121.992 174.899 120.269 160.13 119.184 157.625C118.098 155.121 146.773 144.439 146.773 144.439L175.778 143.896L182.552 163.297C182.552 163.297 178.894 181.492 182.08 189.22L194.14 195.245Z" fill="#D2A588"/>
<path fill-rule="evenodd" clip-rule="evenodd" d="M106.675 126.906C106.675 126.906 97.8722 129.623 91.5236 122.156C85.175 114.712 73.6107 79.975 100.657 84.7956L106.675 126.906Z" fill="#FEC49C"/>
<path fill-rule="evenodd" clip-rule="evenodd" d="M196.57 126.906C196.57 126.906 205.374 129.623 211.722 122.156C218.071 114.712 229.635 79.975 202.589 84.7956L196.57 126.906Z" fill="#FEC49C"/>
<path fill-rule="evenodd" clip-rule="evenodd" d="M181.395 169.228C154.797 197.892 146.82 197.892 120.222 169.228C102.545 150.182 99.5007 130.214 98.2971 106.867C97.2114 85.6702 91.3584 56.5335 102.97 42.6387C121.19 20.8512 180.475 20.8512 198.671 42.6387C210.259 56.5099 204.43 85.6702 203.344 106.867C202.117 130.214 199.072 150.158 181.395 169.228Z" fill="#FEC49C"/>
<path fill-rule="evenodd" clip-rule="evenodd" d="M185.219 191.11C196.523 196.616 229.612 209.471 234.119 211.291C245.448 215.828 255.454 220.483 259.702 225.138C264.517 230.408 268.152 239.6 268.152 251.841C175.637 251.841 127.208 251.841 34.8347 251.841C34.8347 239.577 38.4456 230.384 43.2838 225.138C47.5319 220.483 57.515 215.828 68.867 211.291C73.3747 209.495 106.557 196.569 117.862 191.063L151.54 198.341L185.219 191.11Z" fill="#F7F7F7"/>
<path fill-rule="evenodd" clip-rule="evenodd" d="M122.087 176.861C119.514 176.53 119.113 185.604 117.862 191.11C117.862 191.11 124.871 209.424 139.433 224.004C139.433 224.004 140.59 225.304 141.534 224.902C141.699 224.831 142.478 222.633 143.256 220.247C143.492 219.561 143.705 218.876 143.941 218.215C144.602 216.23 145.168 214.481 145.286 214.15C147.67 207.912 150.927 199.405 151.233 198.27C151.139 198.247 151.045 198.223 150.974 198.199C143.068 195.931 122.275 183.856 122.087 176.861Z" fill="#EBEBEB"/>
<path fill-rule="evenodd" clip-rule="evenodd" d="M180.994 176.861C183.566 176.53 183.968 185.604 185.219 191.11C185.219 191.11 178.209 209.424 163.647 224.004C163.647 224.004 162.491 225.304 161.547 224.902C161.193 224.76 158.101 214.953 157.794 214.15C155.411 207.912 152.154 199.405 151.847 198.27C159.517 196.214 180.829 183.95 180.994 176.861Z" fill="#EBEBEB"/>
<path d="M158.975 217.293H143.492V251.841H158.975V217.293Z" fill="#313536"/>
<path fill-rule="evenodd" clip-rule="evenodd" d="M143.917 220.294C143.917 220.294 152.343 215.592 159.565 220.507C159.565 220.507 161.004 221.239 159.966 216.679C158.904 212.118 155.198 198.412 151.894 198.294C148.59 198.176 143.54 212.85 142.902 217.151C142.218 221.476 143.917 220.294 143.917 220.294Z" fill="#23272A"/>
<path fill-rule="evenodd" clip-rule="evenodd" d="M92.7273 61.0233C92.7273 61.0233 82.5554 55.1156 92.3969 29.8308C102.238 4.54597 139.292 -5.96969 162.916 5.53845C162.916 5.53845 185.455 12.4622 200.488 26.877C200.488 26.877 205.397 35.7385 205.326 40.63C205.326 40.63 213.256 45.7106 213.587 52.2563C213.917 58.802 212.289 62.2521 210.306 63.0555L210.165 85.481C210.165 85.481 204.028 92.1449 203.155 105.142C202.282 118.139 201.031 128.229 201.031 128.229L198.034 141.131L196.193 165.4C195.414 175.49 194.942 178.657 188.192 187.022C182.268 194.348 172.498 203.233 158.337 206.825C141.935 210.984 125.934 198.696 116.399 189.125C108.233 180.925 107.549 179.531 106.652 168.685L104.764 146.259L99.9491 128.064L97.1642 96.7056C97.1642 96.7056 96.2674 87.2533 92.2081 85.5519L92.7273 61.0233ZM151.328 145.243C141.722 145.243 133.911 147.299 133.911 149.827C133.911 152.356 141.699 154.412 151.328 154.412C160.957 154.412 168.745 152.356 168.745 149.827C168.745 147.299 160.957 145.243 151.328 145.243ZM103.82 90.5616C103.82 90.5616 108.398 126.268 110.027 133.617C111.655 140.989 118.688 150.962 123.597 148.693C125.792 147.653 128.907 145.479 132.093 143.565C137.002 140.611 138.938 140.21 144.554 141.438C146.915 141.935 149.534 142.431 152.154 142.171C158.314 141.58 161.901 140.47 164.45 140.706C172.545 141.415 171.365 148.291 179.366 148.551C189.821 148.882 193.432 131.348 193.432 131.348L199.167 89.9236C205.704 83.5433 205.421 70.5937 205.421 70.5937C205.421 70.5937 205.279 65.6785 201.456 59.6291C197.633 53.556 190.505 56.6752 190.505 56.6752C182.67 69.8375 123.125 57.6677 116.092 55.0447C109.059 52.4217 100.893 53.745 97.9431 67.8053C94.993 81.8892 103.82 90.5616 103.82 90.5616Z" fill="#604530"/>
</svg>
